<svg width="16" height="9" viewBox="0 0 16 9" fill="none" xmlns="http://www.w3.org/2000/svg">
<path d="M8.94971 8.77076L15.8042 1.16307C15.9186 1.03614 15.9824 0.86749 15.9824 0.692116C15.9824 0.516741 15.9186 0.348096 15.8042 0.221158L15.7964 0.212967C15.7409 0.151217 15.6742 0.102047 15.6002 0.0684471C15.5262 0.0348463 15.4465 0.017519 15.3659 0.017519C15.2854 0.017519 15.2057 0.0348463 15.1317 0.0684471C15.0577 0.102047 14.9909 0.151217 14.9354 0.212967L8.48113 7.37699L2.02943 0.212967C1.97396 0.151217 1.90719 0.102047 1.83318 0.0684471C1.75917 0.0348463 1.67947 0.017519 1.59893 0.017519C1.51839 0.017519 1.43869 0.0348463 1.36468 0.0684471C1.29067 0.102047 1.2239 0.151217 1.16843 0.212967L1.16068 0.221158C1.04626 0.348096 0.982422 0.516741 0.982422 0.692116C0.982422 0.86749 1.04626 1.03614 1.16068 1.16307L8.01513 8.77076C8.07541 8.83766 8.14791 8.89093 8.22824 8.92732C8.30856 8.96372 8.39504 8.98248 8.48242 8.98248C8.56981 8.98248 8.65629 8.96372 8.73661 8.92732C8.81693 8.89093 8.88943 8.83766 8.94971 8.77076Z" fill="#666666"/>
</svg>
